<svg id="Layer_1" data-name="Layer 1" xmlns="http://www.w3.org/2000/svg" viewBox="0 0 512 512"><title>pinterest-flat</title><g id="Pinterest"><circle id="back" cx="256" cy="256" r="256" fill="#bd081c"/><path id="pinterest-2" data-name="pinterest" d="M367,207c0,64.62-35.9,112.88-88.86,112.88-17.78,0-34.5-9.62-40.24-20.54,0,0-9.56,38-11.58,45.28-7.12,25.86-28.1,51.76-29.72,53.9a2.2,2.2,0,0,1-3.92-.94c-.46-3.3-5.8-36,.5-62.6,3.16-13.36,21.18-89.74,21.18-89.74s-5.26-10.52-5.26-26.06c0-24.41,14.16-42.63,31.76-42.63,15,0,22.22,11.24,22.22,24.72,0,15.07-9.58,37.59-14.54,58.45-4.14,17.48,8.76,31.72,26,31.72,31.2,0,52.2-40.08,52.2-87.56,0-36.09-24.3-63.12-68.52-63.12-49.94,0-81.08,37.26-81.08,78.88,0,14.34,4.24,24.47,10.86,32.29,3,3.6,3.48,5.05,2.38,9.19-.82,3-2.6,10.32-3.38,13.22-1.08,4.16-4.46,5.66-8.24,4.12-23-9.4-33.72-34.6-33.72-62.92,0-46.79,39.46-102.88,117.7-102.88C325.62,112.64,367,158.13,367,207Z" fill="#fff"/></g></svg>